<svg width="800" height="600" xmlns="http://www.w3.org/2000/svg">

 <g>
  <title>Layer 1</title>
  <text stroke="#000" transform="matrix(1.36477 0 0 1.51071 -160.176 -16.5242)" xml:space="preserve" text-anchor="start" font-family="'Alegreya'" font-size="250" id="svg_1" y="273.87612" x="108.2165" stroke-width="0" fill="#ffffff">Place</text>
  <path id="svg_6" d="m680.54364,137.02802c-0.50575,0 -0.7657,-0.47454 -0.7657,-1.0436c0,-0.47443 0.12996,-0.93505 0.50575,-0.93505c0.25995,0 0.65128,0.46062 0.78124,0.93505c0.25995,0.69076 0,1.0436 -0.52128,1.0436zm86.45231,27.0766c1.15707,0 1.41698,0.1217 0.7657,0.93493c-0.37579,0.56906 -1.15703,1.04349 -1.53282,1.04349c-0.39129,0 -0.78124,-0.47443 -0.78124,-1.04349c0,-0.58302 0.52132,-0.93493 1.54836,-0.93493zm-80.78159,-33.12078c-1.15703,-0.23025 -1.28703,-1.39621 0,-1.74824c0.65124,-0.1084 1.02707,0.23022 1.02707,0.93505c0,0.58294 -0.37583,0.92171 -1.02707,0.8132zm-14.42263,36.83359c1.54836,-0.3388 1.54836,-0.58232 1.02707,-1.38229c-0.38995,-0.58232 -0.51991,-1.28707 -0.25995,-1.51736c0.12996,-0.35265 0.78124,0 1.15703,0.69083c0.52128,0.93505 0.9112,1.05748 1.93827,0.47443c0.63716,-0.35199 1.15703,-0.58287 1.15703,-0.23022c0,0.23022 0.39133,0 0.89708,-0.47443c0.78128,-0.69083 0.91124,-2.20882 0.13,-3.02209c-0.63574,-0.69083 -3.86242,-0.46054 -4.75949,0.35199c-0.51991,0.58305 -0.91124,0.46128 -1.41698,-0.58221c-0.78124,-1.73505 -0.78124,-1.97864 1.02703,-2.08705c1.54836,0 1.54836,0 0.25995,-0.70476c-0.64987,-0.3388 -1.28699,-1.04349 -1.28699,-1.5041c0,-1.16589 1.79415,-1.85672 2.57539,-1.04345c0.25995,0.33873 0.76574,0.69083 1.28703,0.69083c1.02707,0 5.93064,-3.94325 5.93064,-4.75652c0,-0.35262 0.50716,-0.58283 1.02707,-0.35262c0.63712,0.1224 1.79419,-0.23022 2.96676,-0.81327c1.66278,-0.93497 1.66278,-1.04349 0.7657,-2.56085c-0.63574,-1.04349 -1.41698,-1.39621 -3.22529,-1.39621c-2.0541,0 -2.57539,0.23033 -3.21113,1.62654c-0.26137,0.93493 -1.04257,1.6258 -1.54836,1.6258c-0.89708,0 -1.15703,-1.04286 -0.25995,-1.6258c0.38991,-0.23033 0.64987,-1.04349 0.64987,-1.85676c0,-1.27385 -0.25995,-1.5041 -1.93827,-1.16526c-1.67831,0.23022 -1.67831,0.1217 -1.28703,-1.62661c0.25995,-1.04345 0.63574,-1.97842 0.89711,-2.08693c0.25995,-0.1217 0.51987,-1.16526 0.51987,-2.20875c0,-2.08716 0.76712,-2.43915 2.18552,-0.93505c0.64983,0.81323 1.04119,0.93505 1.28699,0.23022c0.25995,-0.46054 1.17115,-0.56906 2.58955,-0.33884c1.92415,0.46062 2.0541,0.33884 1.79415,-1.04349c-0.12996,-0.81316 -0.26133,-1.7482 -0.39129,-1.97842c0,-0.3521 -0.63574,-0.81327 -1.40286,-1.16537c-1.54836,-0.58283 -1.93827,-1.97842 -0.52128,-1.97842c0.39133,0 0.76708,-0.23033 0.76708,-0.69157c0,-0.3521 0.78128,-0.58232 1.80831,-0.4745c1.4184,0.1224 2.1841,-0.33866 4.12237,-2.77769c1.4184,-1.74831 2.44543,-2.68329 2.57543,-2.20886c0.12996,0.58232 0.78124,0.92105 1.41836,0.92105c1.02707,0 1.15707,-0.33873 0.78128,-1.85609c-0.13137,-1.04356 -0.78128,-2.31726 -1.17257,-2.90031c-1.15707,-1.28759 -1.15707,-2.79169 0,-2.33126c0.9112,0.46128 3.74654,-0.81253 3.74654,-1.62577c0,-0.35265 0.37721,-0.58294 0.89708,-0.58294c0.52132,0 0.76712,0.70472 0.76712,1.6265c0,1.16526 0.25995,1.62588 0.91124,1.28704c0.50575,-0.24355 0.89711,-0.93505 0.89711,-1.39555c0,-1.39629 4.12233,-3.83536 5.14936,-3.1439c0.39137,0.2304 0.78124,0 0.91269,-0.81316c0.37575,-1.6265 2.70393,-2.90031 3.73096,-2.08705c0.52132,0.33873 1.02711,0.23033 1.15848,-0.1217c0.25991,-0.46124 1.28699,-0.81327 2.44402,-0.92186c1.15703,-0.1217 2.70539,-0.58294 3.35667,-1.05737c2.44402,-1.5041 4.88949,-1.39559 5.91652,0.23102c0.65128,1.16519 0.9112,1.16519 0.9112,0.35192c0,-1.04356 0.5072,-1.16526 3.6025,-0.81316c4.90361,0.46124 5.67073,0.46124 7.47904,-0.12181c1.15703,-0.3388 1.54832,-0.23029 1.54832,0.70464c0,0.58305 0.37583,1.0436 0.89711,1.0436c0.38991,0 0.7657,-0.33884 0.7657,-0.69149c0,-0.93493 2.06968,-1.39555 3.87795,-0.93493c1.40286,0.46124 1.53282,0.58283 1.15703,3.71344c-0.12996,1.87002 0,3.14383 0.24583,3.14383c0.25991,0 0.52128,-0.81327 0.52128,-1.97853c0,-1.96527 1.41698,-2.77788 1.93827,-1.1653c0.13,0.58236 0.50575,0.35203 0.7657,-0.56902c0.65132,-2.43977 2.06968,-1.166 1.67831,1.5041c-0.38987,2.20875 -0.38987,2.20875 0.76716,1.39548c0.65124,-0.35203 1.15699,-1.2737 1.15699,-1.85609c0,-0.58298 0.39137,-1.27444 0.91127,-1.51802c1.02699,-0.46043 2.18548,1.28715 1.80827,2.56147c-0.12996,0.58243 -0.12996,1.04356 0.24579,1.04356c0.26137,0 0.52132,-0.33873 0.52132,-0.58294c0,-0.3388 0.63712,-0.46062 1.41836,-0.23022c1.67694,0.35203 1.92273,1.28696 0.50579,1.85602c-0.37579,0.24421 -0.76712,0.81327 -0.76712,1.28777c0,0.81327 0.26133,0.81327 1.67831,0c2.31406,-1.39555 3.34109,-1.28777 3.73246,0.23022c0.25991,0.81327 0.76708,1.16592 1.28699,0.81327c0.52128,-0.12178 1.67831,0.35265 2.57543,1.16526c0.78124,0.69146 1.93827,1.27381 2.45955,1.27381c0.76712,0 0.76712,0.58302 0.50575,2.20945c-0.25991,1.74831 -0.25991,1.97853 0.52132,1.27389c1.02703,-1.15211 1.41698,-1.04367 1.79419,0.58221c0.12996,0.81327 1.04115,1.39621 2.06823,1.74824c1.15703,0.23102 1.79419,0.81323 1.79419,1.50473c0,0.70472 0.38987,1.51736 0.78124,1.9786c1.02707,0.81316 0.7657,3.25223 -0.39137,4.06547c-0.38987,0.24359 -0.89704,0.12181 -1.02703,-0.23022c-0.25991,-0.35273 -1.15703,-0.35273 -2.83538,0c-2.70539,0.81253 -3.21113,1.04349 -2.57539,2.10023c0.39133,0.69083 4.89086,0.46062 7.34904,-0.35265c0.76712,-0.35207 1.02707,0 1.02707,1.62654c0,1.16519 -0.25995,2.08705 -0.64987,2.08705c-0.26137,0 -0.50716,0.35199 -0.50716,0.93493c0,1.39614 0.63716,1.2737 2.31547,-0.3521c0.89566,-0.93493 1.41694,-1.16589 2.0541,-0.58283c0.64987,0.58283 0.78124,0.58283 0.78124,-0.3521c0,-0.56976 -0.26137,-1.04349 -0.65124,-1.04349c-0.24583,0 -0.5072,-0.46124 -0.5072,-0.92186c0,-0.58287 0.37721,-1.04349 0.89708,-1.04349c0.39133,0 0.91124,0.23022 0.91124,0.56906c0,0.3528 0.50716,0.81323 1.15845,0.93505c0.8957,0.35273 1.15703,0.81327 1.02703,2.20882c-0.26133,2.66991 0.25999,3.48326 2.1841,3.02271c0.91124,-0.23102 1.41694,0 1.02707,0.46054c-0.11584,0.23022 0,0.81327 0.25995,1.05667c1.04257,0.69153 0.65124,2.31745 -0.50579,2.31745c-1.41836,0 -1.80831,0.58283 -1.04115,1.62643c0.51987,0.58294 0.9112,0.69083 1.41694,0.23029c1.17257,-1.16526 1.4184,-0.23029 1.54836,4.4183c0,2.33045 0.25995,4.18728 0.51991,4.18728c0.63712,0 0.39133,2.56147 -0.51991,3.60496c-0.50716,0.58232 -0.50716,1.15134 -0.12996,1.62577c0.9112,1.0436 0,4.06569 -1.15848,4.06569c-1.02699,0 -2.9653,2.20875 -2.9653,3.25231c0,1.27451 -1.66278,0 -2.0541,-1.39559c-0.38991,-1.27378 -0.38991,-1.27378 -0.65128,-0.35265c-0.24579,1.05741 1.15845,4.30971 2.32963,5.23139c0.76708,0.70483 -0.65128,1.87002 -1.67835,1.39559c-0.52132,-0.23022 -0.76712,-0.92105 -0.76712,-1.6258c0,-1.97842 -3.22529,-6.96585 -5.67073,-8.8358c-1.30111,-0.92186 -2.45818,-1.96534 -2.45818,-2.31734c0,-0.70476 -4.12375,-2.90031 -6.43781,-3.60503c-1.28844,-0.35265 -1.67835,-0.23025 -1.67835,0.70472c0,0.69083 -0.24579,0.92105 -0.76712,0.69083c-1.15703,-0.46062 -1.67831,0.58305 -0.65124,1.62654c1.41836,1.27378 1.17257,2.79169 -0.37579,2.20875c-1.04119,-0.35203 -1.17119,-0.23033 -0.78124,1.74828c0.12996,1.152 0.39133,2.66991 0.39133,3.36075c0,0.70476 0.25991,1.16537 0.51987,1.16537c0.37725,0 0.50716,-0.23033 0.24583,-0.58232c-0.12996,-0.35273 0.13141,-0.69149 0.65124,-0.69149c0.39137,0 0.76712,0.46117 0.76712,0.92171c0,0.4745 -0.50712,0.93493 -1.41836,0.81334c-0.7657,0 -1.41698,-0.33884 -1.41698,-0.56913c0,-1.05748 -3.4725,-8.25355 -4.49954,-9.3103c-1.15707,-1.15211 -0.38995,-1.5041 -9.53318,3.95703c-1.41694,0.81327 -2.9653,2.56147 -3.74654,3.83536c-0.63716,1.2737 -1.66419,2.56147 -2.1841,2.79169c-0.52128,0.23033 -2.44543,2.08705 -4.12379,4.06558c-7.21908,8.71336 -6.04652,9.75692 -5.54073,27.5511c2.18548,13.48369 2.18548,13.48369 2.18548,13.48369c-5.15082,0 -5.15082,0 -5.15082,0c-4.25233,0 -4.25233,0 -4.25233,0c0.38991,-12.4409 0.38991,-12.4409 0.38991,-12.4409c0.25991,-1.04279 0.39133,-3.14372 0.52132,-4.30909c0.12996,-0.69146 -3.61662,-3.71355 -3.48662,-4.40431c0,-0.58294 3.87654,1.0436 3.87654,0.46054c0.63712,-8.48314 0,-15.23201 -1.67835,-18.82374c-0.38991,-2.20886 -3.61658,-9.3096 -4.12233,-9.3096c-0.13,0 -1.04119,-0.69146 -1.93827,-1.50473c-1.5484,-1.51729 -2.1841,-1.62588 -10.82158,-2.08705c-9.27319,-0.4738 -9.27319,-0.4738 -9.27319,-0.4738c-2.19822,1.62588 -2.19822,1.62588 -2.19822,1.62588c-1.28699,1.05737 -2.57539,1.74824 -2.95122,1.74824c-0.78124,0 -4.00791,2.43966 -5.41077,3.83514c-0.12996,0 -0.25991,-0.12159 -0.25991,-0.23022c-0.13,0 -0.13,0 -0.13,-0.12178c-0.12996,-0.33873 -0.26133,-0.69146 -0.52128,-1.04349c0.78124,-0.58294 1.41836,-0.9356 1.67831,-0.81316c0.38991,0.23022 0.76712,0 0.76712,-0.58305c0,-0.58232 -0.76712,-0.81323 -2.82122,-0.58232c-2.45959,0.3521 -3.09671,0.4738 -3.48662,1.85613c-0.63716,0.70472 -0.76712,1.74828 -0.38991,2.56155c-0.13141,1.04349 -0.13141,1.7482 0,1.7482c0.12996,0 0.25991,-0.23022 0.64987,-0.47443c0,0.12181 0.12996,0.24421 0.26133,0.35265c-1.2884,0.35203 -1.93968,1.39559 -1.80831,2.43907c-0.65124,0.47443 -1.2884,0.70472 -2.0696,1.05675c0,0 0,-0.1217 -0.11588,-0.1217c0.50716,-1.04349 0.76712,-2.20886 0.89708,-3.95706c0.26137,-1.96534 0.12996,-3.25231 -0.25991,-3.25231c-0.25995,0 -0.52128,0.47443 -0.52128,1.16515c0.12992,0.58305 -0.11588,1.16537 -0.63578,1.27389c-0.39133,0.1217 -0.65124,-0.10851 -0.65124,-0.69083c0,-1.39621 -0.50579,-1.39621 -1.66423,-0.1224c-0.51987,0.47443 -1.54694,1.04356 -2.44402,1.28777c-1.17257,0.33873 -1.54836,0.1084 -2.06964,-1.16537c-0.38991,-1.04349 -0.64987,-2.20945 -0.38991,-2.66999c0.12996,-0.58294 0.12996,-1.05675 -0.37579,-1.05675c-1.4184,0 -0.39133,-1.85683 1.28699,-2.20948zm11.0815,-26.72394c-0.78124,-0.1217 -1.4184,-0.46054 -1.67831,-0.93497c-0.13,-0.69146 -0.25995,-0.69146 -0.25995,0c0,0.47443 -0.52128,0.81327 -1.02707,0.93497c-0.9112,0 -0.9112,0.12178 0.13,0.58305c0.63571,0.23022 1.28699,0.58221 1.41694,0.58221c0.11584,0 0.76712,-0.35199 1.4184,-0.58221c1.15703,-0.58305 1.15703,-0.58305 0,-0.58305zm102.16193,18.71523c0.24583,0.23033 0.50579,-0.1224 0.50579,-0.70472c0,-0.46117 -0.25995,-0.92178 -0.50579,-0.92178c-0.39129,0 -0.65124,0.23029 -0.65124,0.56906c0,0.35273 0.25995,0.82716 0.65124,1.05745zm-0.9112,1.04356c-0.12996,-0.35273 -0.76712,-0.81323 -1.2884,-0.81323c-0.37579,0 -0.63574,0.46051 -0.37579,0.81323c0.11584,0.35203 0.63712,0.58236 1.15703,0.58236c0.50716,0 0.63712,-0.23033 0.50716,-0.58236zm-1.15703,5.23076c0.38991,0 0.9112,-0.1217 0.9112,-0.23022c0,-0.24421 -0.52128,-0.47443 -0.9112,-0.70476c-0.50716,-0.23029 -0.89711,-0.10851 -0.89711,0.23033c0,0.35265 0.38995,0.70464 0.89711,0.70464zm1.02707,-11.04454c0.51987,-0.2304 0.7812,-0.58302 0.64987,-0.92186c-0.38995,-0.82642 -2.57405,-0.82642 -2.57405,0c0,0.92186 0.76574,1.27389 1.92419,0.92186zm-7.07497,-8.71417c-0.65128,0.35273 -1.04119,1.04356 -0.91127,1.39621c0.65128,0.92116 1.41844,0.69083 2.06826,-0.81327c0.63716,-1.39621 0.37721,-1.62643 -1.15699,-0.58294zm-2.45959,17.90199c3.35663,3.13049 3.48662,3.25231 3.48662,2.20882c0,-0.58232 -0.25995,-1.05675 -0.65128,-1.05675c-0.37575,0 -1.02703,-0.58305 -1.41694,-1.27378c-0.37583,-0.69157 -1.15703,-1.39632 -1.79419,-1.39632c-1.17115,0 -1.17115,0.12244 0.37579,1.51802zm-2.70401,-5.47505c0.77986,0 1.15707,-0.23022 0.6499,-0.33877c-0.38991,-0.23029 -1.02707,-0.23029 -1.41698,0c-0.39137,0.10855 0,0.33877 0.76708,0.33877zm-3.73242,-15.80106c0.38991,0.3521 1.54694,0.81265 2.57397,1.0436c1.80835,0.35199 1.93831,0.35199 0.91124,-0.58294c-1.17115,-1.15211 -4.38228,-1.5041 -3.48521,-0.46065zm-7.85624,-19.28417c-0.38991,0.33873 -0.51987,1.04349 -0.38991,1.50399c0.25995,0.93505 1.02707,0.12181 1.02707,-1.27378c0,-0.70476 -0.13,-0.81327 -0.63716,-0.23022zm3.86242,25.09806c1.02707,0.58224 1.4184,0.58224 1.93972,-0.23095c1.02703,-1.27385 0.37575,-1.85609 -1.5484,-1.04345c-1.54836,0.56968 -1.54836,0.56968 -0.39133,1.2744zm-2.57397,-5.81389c1.93827,-1.27367 1.93827,-1.27367 0.38991,-1.27367c-1.04119,0 -1.80831,0.46043 -2.19822,1.27367c-0.24583,0.81265 -0.50716,1.27389 -0.37721,1.27389c0,0 1.02707,-0.69153 2.18552,-1.27389zm-2.83538,18.83704c0.89566,1.27389 2.44406,1.27389 1.93827,-0.12178c-0.12996,-0.46117 -0.26133,-1.04349 -0.26133,-1.16592c0,-0.10851 -0.51991,-0.10851 -1.15703,0.12244c-1.04119,0.23029 -1.04119,0.58232 -0.51991,1.16526zm-3.99379,-4.77029c1.02703,1.27385 1.54836,1.39555 2.70539,0.46062c0.76712,-0.58232 0.76712,-0.58232 0,-0.69083c-0.38991,0 -1.41698,-0.12244 -2.31406,-0.35273c-1.2884,-0.46054 -1.2884,-0.46054 -0.39133,0.58294zm-0.12996,-12.67116c0.65124,0 1.41836,-1.85672 1.02707,-2.43904c-0.50579,-0.58294 -1.54698,0.35199 -1.54698,1.39555c0,0.58298 0.25995,1.04349 0.51991,1.04349zm-6.30647,7.90083c-0.78124,0.47443 -0.65124,0.58305 0.37583,0.58305c0.65124,0 1.41694,-0.23102 1.67831,-0.58305c0.38987,-0.92167 -0.89711,-0.92167 -2.05414,0zm0.13,10.23146c0.11584,0.12244 0.50575,-0.12178 0.89708,-0.69083c0.38987,-0.47443 1.54698,-1.05737 2.44402,-1.2877c1.15703,-0.3521 1.67835,-0.92112 1.67835,-1.74828c0,-1.96453 -1.80831,-1.38233 -3.7325,1.16596c-0.7812,1.28707 -1.41694,2.33063 -1.28695,2.56085zm-1.41836,-5.35261c1.15699,-1.2737 1.15699,-1.50473 0.24575,-1.85676c-1.02703,-0.46062 -1.79273,0.58305 -1.79273,2.43907c-0.13137,1.39621 -0.13137,1.39621 1.54698,-0.58232zm-2.06826,-13.71461c0.12996,0.93493 0.38991,0.81323 1.15699,-0.92178c0.91127,-1.85613 0.91127,-2.10034 0.13,-2.10034c-0.50575,0 -1.02707,0.3521 -1.15703,0.93508c-0.25995,0.46051 -0.25995,1.51799 -0.12996,2.08705zm-0.63716,-9.52674c0,0.4738 0.24579,1.62588 0.50716,2.43907c0.38991,1.6265 0.38991,1.6265 0.78124,0.23029c0.50575,-1.39548 0,-3.48252 -0.78124,-3.48252c-0.37721,0 -0.50716,0.35192 -0.50716,0.81316zm-9.02598,3.83463c-0.63712,0.81327 -0.63712,1.62654 -0.13137,4.06558c0.26137,1.74824 0.91265,3.49652 1.2884,3.83536c0.65128,0.58294 0.78124,0 0.9112,-3.60441c0,-4.40442 -0.65124,-5.80052 -2.06823,-4.29653zm1.15703,12.31913c0.13,0.23033 0.38991,-0.23029 0.25995,-0.92175c0,-0.70476 -0.12996,-0.81327 -0.38991,-0.35203c-0.11588,0.46054 -0.11588,1.04349 0.12996,1.27378zm4.64365,-10.92292c-0.12996,0.23033 -0.12996,1.85683 0.25995,3.60441c0.39133,3.02271 0.50716,3.14442 0.63716,0.9356c0.12996,-3.60503 -0.13,-5.35324 -0.89711,-4.54zm-4.3837,32.78197c0.78124,-1.39621 2.06826,-3.72685 2.96534,-5.12295c1.02703,-1.50421 1.67831,-3.48263 1.93827,-5.46116c0.37721,-3.1306 0.37721,-3.1306 0.37721,-3.1306c-1.54836,1.73502 -1.54836,1.73502 -1.54836,1.73502c-0.76712,0.93505 -1.28703,1.97853 -1.28703,2.33063c0,0.92171 -2.44543,6.73549 -3.21255,7.77905c-0.38991,0.58221 -1.04119,1.87002 -1.15703,2.79169c-0.65128,2.66944 0.50716,2.20882 1.92415,-0.92167zm-9.14323,11.9664c0.39133,2.31726 0.39133,2.31726 1.67835,-2.67002c0.76712,-2.68332 1.92415,-6.97904 2.70539,-9.6491c1.02703,-3.37412 1.41836,-6.16581 1.41836,-10.10957c0,-5.12243 -0.13137,-5.23095 -1.15841,-4.64789c-2.32822,1.50407 -3.61662,5.69134 -4.13653,13.82239c-0.24579,4.18809 -0.50716,8.37536 -0.76708,9.29715c-0.13,0.93497 0,2.68325 0.25991,3.95706zm0.26137,-29.74669c0.50575,1.15207 1.02707,2.08705 1.02707,2.08705c0.12996,0 0.76566,-0.70476 1.28699,-1.62643c0.65124,-0.81261 1.67831,-1.74758 2.06826,-2.08642c1.5342,-1.05737 1.92411,-4.30968 0.63712,-6.5185c-1.02707,-1.97853 -3.86242,-4.18801 -4.38374,-3.48326c-0.25991,0.23029 -0.63571,2.43977 -0.89708,5.00062c-0.51987,3.83525 -0.51987,5.00114 0.26137,6.62694zm-0.78124,-26.61598c0.25995,0.23095 0.51987,0.10851 0.51987,-0.24348c0,-0.46124 -0.25991,-0.92186 -0.51987,-1.15211c-0.39133,-0.24418 -0.63716,-0.12178 -0.63716,0.33884c0,0.35203 0.24583,0.81327 0.63716,1.05675zm-41.73645,31.25061c1.79415,0.1224 1.79415,0.1224 1.79415,0.1224c1.80831,0 3.61662,-1.50473 3.61662,-2.79169c0,-0.81327 -0.12996,-0.81327 -5.41077,2.66929zm0.76712,-3.25234c0,0.35284 0.25995,0.70476 0.65128,0.70476c0.63574,0 2.44402,-2.08705 2.0541,-2.43904c-0.39133,-0.47443 -2.70539,1.04345 -2.70539,1.73428zm1.41836,-8.00923c1.93831,2.31789 2.83538,2.54818 3.86242,1.04345c1.04119,-1.39548 0.13,-2.33052 -2.96672,-2.66936c-2.57401,-0.35273 -2.57401,-0.35273 -0.8957,1.62591zm-1.41836,-6.51791c0,0.24348 0.9112,0.81253 1.93827,1.28696c4.75953,2.20886 5.67073,2.20886 5.54073,0.10862c0,-1.27389 -1.93827,-4.06565 -2.70539,-4.06565c-0.9112,0 -4.77361,2.20882 -4.77361,2.67006zm6.95913,16.50578c1.41698,0 1.54694,-0.3521 0.38991,-0.92116c-0.52128,-0.1224 -1.02707,0 -1.15703,0.33884c-0.26137,0.35192 0.12996,0.58232 0.76712,0.58232zm1.02707,-27.30692c-0.89711,-0.58302 -2.05556,-0.81323 -2.57543,-0.58302c-0.89708,0.46124 -0.76712,0.58302 0.51987,0.93493c0.63716,0.23102 1.93972,0.46128 2.57543,0.56979c0.76712,0 0.76712,-0.23095 -0.51987,-0.92171zm-0.11584,4.18728c0.76566,0 0.89708,-0.12178 0.37579,-0.4738c-0.37579,-0.10844 -0.89711,-0.10844 -1.15707,0.12181c-0.12996,0.23022 0.25995,0.46062 0.78128,0.35199zm0.76566,2.6701c-1.80827,0 -1.80827,0.1084 -0.76566,1.04345c1.28699,1.04349 1.66278,1.16519 2.1841,0.46054c0.89704,-0.92116 0.25991,-1.50399 -1.41844,-1.50399zm2.57547,-13.13177c-0.52132,-0.58294 -0.65128,0.46062 -0.38995,1.73439c0.12996,0.81327 0.64987,1.51791 0.91124,1.51791c0.50575,0 0.12996,-2.56147 -0.52128,-3.25231zm4.12233,15.34041c-0.25991,0.10862 0.39133,0.81327 1.15845,1.39629c0.78124,0.58232 1.41694,0.81257 1.41694,0.46054c0,-0.81316 -2.18406,-2.33115 -2.57539,-1.85683zm-3.22529,0.81327c-1.15703,0.81334 -0.50575,2.90028 1.17119,3.25238c0.89708,0.23025 2.31547,1.1653 3.21255,2.08697c0.78124,0.93505 1.41694,1.28777 1.41694,0.93505c0,-1.16526 -5.1494,-6.74883 -5.80068,-6.2744zm5.28082,9.64921c-0.76708,-1.87071 -1.66419,-2.79187 -3.34255,-3.37482c-1.28699,-0.46054 -2.57539,-0.70464 -2.9653,-0.58224c-0.39133,0.1217 1.15703,1.6258 3.35667,3.37405c4.12233,3.02209 4.12233,3.02209 2.95118,0.58302zm6.84188,-17.90207c-0.25995,0 -0.52132,0.46062 -0.52132,0.92116c0,0.58294 0.26137,0.93505 0.52132,0.93505c0.37579,0 0.63716,-0.3521 0.63716,-0.93505c0,-0.46054 -0.26137,-0.92116 -0.63716,-0.92116zm-1.17115,9.52674c0,0.81316 2.19822,0.23029 3.0953,-0.81327c1.28703,-1.7482 1.15703,-2.20882 -0.52128,-2.20882c-1.15703,0 -2.57401,1.62658 -2.57401,3.02209zm3.74658,-25.09817c-0.39133,1.5041 -0.65128,2.77788 -0.52128,2.90031c0.39129,0.46062 1.4184,-3.02202 1.4184,-4.41823c0,-0.58232 -0.39137,0.12244 -0.89711,1.51791zm6.6978,23.47164c-0.65128,0 -1.15707,0.23102 -1.15707,0.69146c0,0.3521 0.37579,0.58305 0.7657,0.58305c0.52128,0 1.02707,-0.23095 1.15845,-0.58305c0.25995,-0.46043 -0.13137,-0.69146 -0.76708,-0.69146zm-1.5484,21.84576c0.76712,2.10097 1.92415,4.06558 2.57543,4.54c0.65128,0.3521 1.93827,1.9786 2.70539,3.60503c0.76712,1.62588 1.54836,2.89969 1.67835,2.89969c0.63571,0 -0.65128,-10.692 -1.54836,-13.94493c-0.78128,-2.79107 -1.02711,-5.35261 -0.89711,-9.41819c0.11584,-3.02202 0,-5.69208 -0.25991,-5.92233c-0.13,-0.23029 -1.02707,-0.23029 -1.80831,0c-1.4184,0.46054 -1.54836,0.81327 -1.54836,3.37474c0,1.96465 -0.25999,3.02209 -0.89711,3.48252c-1.80827,1.0436 -1.67831,6.96589 0,11.38346zm-3.73242,-15.5707c-0.25995,-1.74824 -0.51987,-1.97853 -1.93827,-1.97853c-1.67835,0 -1.67835,0.12178 -1.54836,2.56085c0,1.50473 0.26133,3.25293 0.39129,4.06554c0.13,0.81327 0.63716,1.62643 1.15707,1.74824c1.02703,0.58302 2.18406,-3.48252 1.93827,-6.3961zm-1.93827,11.73545c-1.15707,-1.39559 -1.93827,-2.89969 -2.05414,-3.25231c0,-0.46054 -0.65124,-1.6258 -1.41698,-2.66936c-0.78124,-1.04349 -1.67831,-2.33118 -2.06964,-2.7918c-1.28699,-1.62643 -1.02707,-0.23022 0.39133,3.37412c0.89708,2.43966 2.44406,4.64852 4.25233,6.50524c3.34251,3.14379 3.73246,2.56096 0.89711,-1.16589zm-2.05414,5.70527c1.40286,0 1.28703,-0.1217 -0.65124,-1.97842c-1.28703,-1.16537 -2.1841,-2.43915 -2.1841,-3.02213c0,-0.46051 -1.67835,-2.10031 -3.61658,-3.60441c-1.92419,-1.51788 -3.7325,-3.02198 -3.99241,-3.48315c-0.26137,-0.58232 -0.39133,-0.58232 -0.39133,0.10851c0,0.70476 -0.63574,0.81316 -2.70539,0.46054c-1.41698,-0.23033 -2.57401,-0.23033 -2.57401,-0.10789c0,0.23029 0.51987,1.62588 1.04119,3.02198c0.89711,2.31737 1.28699,2.79187 4.12237,3.71296c1.79419,0.58294 4.62949,1.97849 6.43781,3.02198c1.67835,1.05748 3.73246,1.87002 4.5137,1.87002zm-20.10885,3.94376c0.52128,0 1.2884,-0.23022 1.80827,-0.58283c0.89711,-0.81265 0.13141,-0.81265 -1.54694,0c-0.76712,0.35262 -0.89708,0.46113 -0.26133,0.58283zm-1.41698,-2.90028c1.28703,-0.47373 5.41077,-0.93497 9.15735,-0.93497c7.07359,-0.10851 8.49195,-0.46043 5.65657,-1.16526c-0.89704,-0.23022 -2.95118,-0.81327 -4.62949,-1.39559c-2.96534,-1.04349 -9.02739,-0.69146 -9.66314,0.47391c-0.13137,0.23084 -0.78124,0.35262 -1.41836,0.23084c-1.28703,-0.35265 -2.57543,0.58239 -2.96534,2.43915c-0.52128,1.50399 0.38991,1.62643 3.86242,0.35192zm-10.30026,2.67006c0.25995,0.93505 1.54836,1.04349 2.57543,0.23022c0.63571,-0.46051 0.63571,-0.69072 0,-1.39548c-0.52128,-0.69157 -0.89708,-0.69157 -1.67831,-0.10851c-0.52128,0.33884 -0.89711,0.92116 -0.89711,1.27378zm-4.12237,8.13115c0.50579,0 0.76574,0.3521 0.50579,1.04356c-0.11588,0.47443 -0.50579,0.93497 -0.76712,0.93497c-0.38991,0 -0.63574,-0.46054 -0.63574,-0.93497c0,-0.56906 0.37579,-1.04356 0.89708,-1.04356z" stroke-width="0" stroke="#000" fill="#aaffd4"/>
  <path stroke="#000" id="svg_7" d="m794.1915,596.37626c-0.00857,0 -0.01298,-0.00646 -0.01298,-0.0142c0,-0.00646 0.0022,-0.01273 0.00857,-0.01273c0.00441,0 0.01104,0.00627 0.01324,0.01273c0.00441,0.0094 0,0.0142 -0.00884,0.0142zm1.46529,0.36854c0.01961,0 0.02402,0.00166 0.01298,0.01273c-0.00637,0.00775 -0.01961,0.0142 -0.02598,0.0142c-0.00663,0 -0.01324,-0.00646 -0.01324,-0.0142c0,-0.00794 0.00884,-0.01273 0.02624,-0.01273zm-1.36918,-0.45081c-0.01961,-0.00313 -0.02181,-0.019 0,-0.0238c0.01104,-0.00148 0.01741,0.00313 0.01741,0.01273c0,0.00793 -0.00637,0.01255 -0.01741,0.01107zm-0.24445,0.50135c0.02624,-0.00461 0.02624,-0.00793 0.01741,-0.01881c-0.00661,-0.00793 -0.00881,-0.01752 -0.00441,-0.02065c0.0022,-0.0048 0.01324,0 0.01961,0.0094c0.00884,0.01273 0.01544,0.01439 0.03285,0.00646c0.0108,-0.00479 0.01961,-0.00793 0.01961,-0.00313c0,0.00313 0.00663,0 0.0152,-0.00646c0.01324,-0.0094 0.01544,-0.03006 0.0022,-0.04113c-0.01078,-0.0094 -0.06546,-0.00627 -0.08067,0.00479c-0.00881,0.00794 -0.01544,0.00628 -0.02402,-0.00792c-0.01324,-0.02362 -0.01324,-0.02693 0.01741,-0.02841c0.02624,0 0.02624,0 0.00441,-0.00959c-0.01101,-0.00461 -0.02181,-0.0142 -0.02181,-0.02047c0,-0.01587 0.03041,-0.02527 0.04365,-0.0142c0.00441,0.00461 0.01298,0.0094 0.02181,0.0094c0.01741,0 0.10052,-0.05367 0.10052,-0.06474c0,-0.0048 0.0086,-0.00793 0.01741,-0.0048c0.0108,0.00167 0.03041,-0.00313 0.05028,-0.01107c0.02818,-0.01273 0.02818,-0.0142 0.01298,-0.03486c-0.01078,-0.0142 -0.02402,-0.019 -0.05467,-0.019c-0.03482,0 -0.04365,0.00314 -0.05443,0.02214c-0.00443,0.01273 -0.01767,0.02213 -0.02624,0.02213c-0.0152,0 -0.01961,-0.01419 -0.00441,-0.02213c0.00661,-0.00314 0.01101,-0.0142 0.01101,-0.02527c0,-0.01734 -0.00441,-0.02047 -0.03285,-0.01586c-0.02845,0.00313 -0.02845,0.00166 -0.02181,-0.02214c0.00441,-0.0142 0.01078,-0.02693 0.01521,-0.02841c0.00441,-0.00166 0.00881,-0.01586 0.00881,-0.03006c0,-0.02841 0.013,-0.0332 0.03704,-0.01273c0.01101,0.01107 0.01765,0.01273 0.02181,0.00313c0.00441,-0.00627 0.01985,-0.00775 0.04389,-0.00461c0.03261,0.00627 0.03482,0.00461 0.03041,-0.0142c-0.0022,-0.01107 -0.00443,-0.0238 -0.00663,-0.02693c0,-0.00479 -0.01078,-0.01107 -0.02378,-0.01586c-0.02624,-0.00793 -0.03285,-0.02693 -0.00884,-0.02693c0.00663,0 0.013,-0.00314 0.013,-0.00941c0,-0.00479 0.01324,-0.00793 0.03065,-0.00646c0.02404,0.00167 0.03702,-0.00461 0.06987,-0.03781c0.02404,-0.0238 0.04145,-0.03652 0.04365,-0.03007c0.0022,0.00793 0.01324,0.01254 0.02404,0.01254c0.01741,0 0.01961,-0.00461 0.01324,-0.02526c-0.00223,-0.0142 -0.01324,-0.03154 -0.01987,-0.03948c-0.01961,-0.01753 -0.01961,-0.038 0,-0.03173c0.01544,0.00628 0.0635,-0.01106 0.0635,-0.02213c0,-0.0048 0.00639,-0.00793 0.0152,-0.00793c0.00884,0 0.013,0.00959 0.013,0.02214c0,0.01586 0.00441,0.02213 0.01544,0.01752c0.00857,-0.00332 0.01521,-0.01273 0.01521,-0.019c0,-0.01901 0.06987,-0.0522 0.08728,-0.04279c0.00663,0.00314 0.01324,0 0.01547,-0.01107c0.00637,-0.02214 0.04583,-0.03948 0.06324,-0.02841c0.00884,0.00461 0.01741,0.00314 0.01964,-0.00166c0.00441,-0.00628 0.02181,-0.01107 0.04142,-0.01255c0.01961,-0.00166 0.04585,-0.00793 0.05689,-0.01439c0.04142,-0.02047 0.08287,-0.019 0.10028,0.00314c0.01104,0.01586 0.01544,0.01586 0.01544,0.00479c0,-0.0142 0.0086,-0.01586 0.06106,-0.01107c0.08311,0.00628 0.09611,0.00628 0.12676,-0.00166c0.01961,-0.00461 0.02624,-0.00313 0.02624,0.00959c0,0.00794 0.00637,0.0142 0.01521,0.0142c0.00661,0 0.01298,-0.00461 0.01298,-0.00941c0,-0.01273 0.03508,-0.019 0.06573,-0.01273c0.02378,0.00628 0.02598,0.00793 0.01961,0.05054c-0.0022,0.02545 0,0.04279 0.00417,0.04279c0.00441,0 0.00884,-0.01107 0.00884,-0.02693c0,-0.02675 0.02402,-0.03781 0.03285,-0.01586c0.0022,0.00793 0.00857,0.00479 0.01298,-0.00775c0.01104,-0.03321 0.03508,-0.01587 0.02845,0.02047c-0.00661,0.03006 -0.00661,0.03006 0.013,0.01899c0.01104,-0.00479 0.01961,-0.01734 0.01961,-0.02526c0,-0.00794 0.00663,-0.01735 0.01545,-0.02066c0.01741,-0.00627 0.03704,0.01752 0.03065,0.03486c-0.0022,0.00793 -0.0022,0.0142 0.00417,0.0142c0.00443,0 0.00884,-0.00461 0.00884,-0.00793c0,-0.00461 0.0108,-0.00627 0.02404,-0.00313c0.02842,0.00479 0.03259,0.01752 0.00857,0.02526c-0.00637,0.00332 -0.013,0.01107 -0.013,0.01753c0,0.01107 0.00443,0.01107 0.02845,0c0.03922,-0.019 0.05663,-0.01753 0.06326,0.00313c0.00441,0.01107 0.013,0.01587 0.02181,0.01107c0.00884,-0.00166 0.02845,0.0048 0.04365,0.01586c0.01324,0.00941 0.03285,0.01734 0.04169,0.01734c0.013,0 0.013,0.00794 0.00857,0.03007c-0.00441,0.0238 -0.00441,0.02693 0.00884,0.01734c0.01741,-0.01568 0.02402,-0.01421 0.03041,0.00792c0.0022,0.01107 0.01765,0.019 0.03505,0.0238c0.01961,0.00314 0.03041,0.01107 0.03041,0.02048c0,0.00959 0.00661,0.02065 0.01324,0.02693c0.01741,0.01107 0.01298,0.04427 -0.00663,0.05534c-0.00661,0.00332 -0.0152,0.00166 -0.01741,-0.00313c-0.00441,-0.0048 -0.01961,-0.0048 -0.04806,0c-0.04585,0.01106 -0.05443,0.0142 -0.04365,0.02859c0.00663,0.0094 0.0829,0.00627 0.12456,-0.0048c0.013,-0.00479 0.01741,0 0.01741,0.02214c0,0.01586 -0.00441,0.02841 -0.01101,0.02841c-0.00443,0 -0.0086,0.00479 -0.0086,0.01273c0,0.019 0.0108,0.01734 0.03925,-0.00479c0.01518,-0.01273 0.02402,-0.01587 0.03482,-0.00793c0.01101,0.00793 0.01324,0.00793 0.01324,-0.00479c0,-0.00776 -0.00443,-0.0142 -0.01104,-0.0142c-0.00417,0 -0.0086,-0.00628 -0.0086,-0.01255c0,-0.00793 0.00639,-0.0142 0.0152,-0.0142c0.00663,0 0.01544,0.00313 0.01544,0.00775c0,0.0048 0.0086,0.01107 0.01963,0.01273c0.01518,0.0048 0.01961,0.01107 0.01741,0.03006c-0.00443,0.03634 0.00441,0.04741 0.03702,0.04114c0.01544,-0.00314 0.02402,0 0.01741,0.00627c-0.00196,0.00313 0,0.01107 0.00441,0.01438c0.01767,0.00941 0.01104,0.03154 -0.00857,0.03154c-0.02404,0 -0.03065,0.00793 -0.01765,0.02214c0.00881,0.00793 0.01544,0.0094 0.02402,0.00313c0.01987,-0.01586 0.02404,-0.00313 0.02624,0.06014c0,0.03172 0.00441,0.05699 0.00881,0.05699c0.0108,0 0.00663,0.03486 -0.00881,0.04907c-0.0086,0.00793 -0.0086,0.01567 -0.0022,0.02213c0.01544,0.0142 0,0.05534 -0.01964,0.05534c-0.01741,0 -0.05026,0.03006 -0.05026,0.04427c0,0.01735 -0.02818,0 -0.03482,-0.019c-0.00661,-0.01734 -0.00661,-0.01734 -0.01104,-0.0048c-0.00417,0.01439 0.01963,0.05866 0.03949,0.07121c0.013,0.00959 -0.01104,0.02545 -0.02845,0.019c-0.00884,-0.00313 -0.013,-0.01254 -0.013,-0.02213c0,-0.02693 -0.05467,-0.09481 -0.09611,-0.12027c-0.02205,-0.01255 -0.04166,-0.02675 -0.04166,-0.03154c0,-0.00959 -0.06989,-0.03948 -0.10912,-0.04907c-0.02184,-0.0048 -0.02845,-0.00313 -0.02845,0.00959c0,0.0094 -0.00417,0.01254 -0.013,0.0094c-0.01961,-0.00627 -0.02845,0.00794 -0.01104,0.02214c0.02404,0.01734 0.01987,0.038 -0.00637,0.03006c-0.01765,-0.00479 -0.01985,-0.00314 -0.01324,0.0238c0.0022,0.01568 0.00663,0.03634 0.00663,0.04574c0,0.00959 0.00441,0.01586 0.00881,0.01586c0.00639,0 0.0086,-0.00314 0.00417,-0.00793c-0.0022,-0.0048 0.00223,-0.00941 0.01104,-0.00941c0.00663,0 0.013,0.00628 0.013,0.01255c0,0.00646 -0.0086,0.01273 -0.02404,0.01107c-0.01298,0 -0.02402,-0.00461 -0.02402,-0.00775c0,-0.01439 -0.05886,-0.11234 -0.07626,-0.12672c-0.01961,-0.01568 -0.00661,-0.02047 -0.16158,0.05386c-0.02402,0.01107 -0.05026,0.03486 -0.0635,0.0522c-0.0108,0.01734 -0.02821,0.03486 -0.03702,0.038c-0.00884,0.00314 -0.04145,0.02841 -0.06989,0.05534c-0.12236,0.1186 -0.10248,0.1328 -0.09391,0.375c0.03704,0.18353 0.03704,0.18353 0.03704,0.18353c-0.0873,0 -0.0873,0 -0.0873,0c-0.07207,0 -0.07207,0 -0.07207,0c0.00661,-0.16933 0.00661,-0.16933 0.00661,-0.16933c0.00441,-0.01419 0.00663,-0.04279 0.00884,-0.05865c0.0022,-0.00941 -0.0613,-0.05055 -0.0591,-0.05995c0,-0.00793 0.0657,0.0142 0.0657,0.00627c0.0108,-0.11547 0,-0.20732 -0.02845,-0.25621c-0.00661,-0.03007 -0.0613,-0.12671 -0.06987,-0.12671c-0.0022,0 -0.01765,-0.00941 -0.03285,-0.02048c-0.02624,-0.02065 -0.03702,-0.02213 -0.18342,-0.02841c-0.15717,-0.00645 -0.15717,-0.00645 -0.15717,-0.00645c-0.03726,0.02213 -0.03726,0.02213 -0.03726,0.02213c-0.02181,0.01439 -0.04365,0.0238 -0.05002,0.0238c-0.01324,0 -0.06793,0.03321 -0.09171,0.0522c-0.0022,0 -0.00441,-0.00166 -0.00441,-0.00313c-0.0022,0 -0.0022,0 -0.0022,-0.00166c-0.0022,-0.00461 -0.00443,-0.00941 -0.00884,-0.0142c0.01324,-0.00793 0.02404,-0.01273 0.02845,-0.01107c0.00661,0.00313 0.013,0 0.013,-0.00794c0,-0.00793 -0.013,-0.01107 -0.04782,-0.00793c-0.04169,0.00479 -0.05249,0.00645 -0.0591,0.02526c-0.0108,0.00959 -0.013,0.0238 -0.00661,0.03487c-0.00223,0.0142 -0.00223,0.0238 0,0.0238c0.0022,0 0.00441,-0.00313 0.01101,-0.00646c0,0.00166 0.0022,0.00332 0.00443,0.0048c-0.02184,0.00479 -0.03288,0.019 -0.03065,0.0332c-0.01104,0.00646 -0.02184,0.00959 -0.03508,0.01438c0,0 0,-0.00166 -0.00196,-0.00166c0.0086,-0.0142 0.013,-0.03007 0.0152,-0.05386c0.00443,-0.02675 0.0022,-0.04427 -0.00441,-0.04427c-0.00441,0 -0.00884,0.00646 -0.00884,0.01586c0.0022,0.00794 -0.00196,0.01586 -0.01078,0.01734c-0.00663,0.00166 -0.01104,-0.00148 -0.01104,-0.0094c0,-0.019 -0.00857,-0.019 -0.02821,-0.00167c-0.00881,0.00646 -0.02622,0.0142 -0.04142,0.01753c-0.01987,0.00461 -0.02624,0.00148 -0.03508,-0.01586c-0.00661,-0.0142 -0.01101,-0.03007 -0.00661,-0.03634c0.0022,-0.00793 0.0022,-0.01438 -0.00637,-0.01438c-0.02404,0 -0.00663,-0.02527 0.02181,-0.03007zm0.18782,-0.36374c-0.01324,-0.00166 -0.02404,-0.00627 -0.02845,-0.01273c-0.0022,-0.00941 -0.00441,-0.00941 -0.00441,0c0,0.00646 -0.00884,0.01107 -0.01741,0.01273c-0.01544,0 -0.01544,0.00166 0.0022,0.00794c0.01077,0.00313 0.02181,0.00792 0.02402,0.00792c0.00196,0 0.013,-0.00479 0.02404,-0.00792c0.01961,-0.00794 0.01961,-0.00794 0,-0.00794zm1.73156,0.25474c0.00417,0.00314 0.00857,-0.00167 0.00857,-0.00959c0,-0.00628 -0.00441,-0.01255 -0.00857,-0.01255c-0.00663,0 -0.01104,0.00313 -0.01104,0.00775c0,0.0048 0.00441,0.01126 0.01104,0.01439zm-0.01544,0.0142c-0.0022,-0.0048 -0.013,-0.01107 -0.02184,-0.01107c-0.00637,0 -0.01078,0.00627 -0.00637,0.01107c0.00196,0.00479 0.0108,0.00793 0.01961,0.00793c0.0086,0 0.0108,-0.00314 0.0086,-0.00793zm-0.01961,0.0712c0.00661,0 0.01544,-0.00166 0.01544,-0.00313c0,-0.00332 -0.00884,-0.00646 -0.01544,-0.00959c-0.0086,-0.00313 -0.01521,-0.00148 -0.01521,0.00314c0,0.0048 0.00661,0.00959 0.01521,0.00959zm0.01741,-0.15033c0.00881,-0.00314 0.01324,-0.00794 0.01101,-0.01255c-0.00661,-0.01125 -0.04363,-0.01125 -0.04363,0c0,0.01255 0.01298,0.01734 0.03261,0.01255zm-0.11991,-0.11861c-0.01104,0.0048 -0.01765,0.0142 -0.01545,0.019c0.01104,0.01254 0.02404,0.0094 0.03506,-0.01107c0.0108,-0.019 0.00639,-0.02214 -0.01961,-0.00793zm-0.04169,0.24367c0.05689,0.04261 0.0591,0.04427 0.0591,0.03006c0,-0.00793 -0.00441,-0.01438 -0.01104,-0.01438c-0.00637,0 -0.01741,-0.00794 -0.02402,-0.01734c-0.00637,-0.00941 -0.01961,-0.01901 -0.03041,-0.01901c-0.01985,0 -0.01985,0.00167 0.00637,0.02066zm-0.04583,-0.07452c0.01322,0 0.01961,-0.00313 0.01102,-0.00461c-0.00661,-0.00313 -0.01741,-0.00313 -0.02402,0c-0.00663,0.00148 0,0.00461 0.013,0.00461zm-0.06326,-0.21507c0.00661,0.00479 0.02622,0.01106 0.04363,0.0142c0.03065,0.00479 0.03285,0.00479 0.01544,-0.00793c-0.01985,-0.01568 -0.07428,-0.02047 -0.05907,-0.00627zm-0.13316,-0.26248c-0.00661,0.00461 -0.00881,0.0142 -0.00661,0.02047c0.00441,0.01273 0.01741,0.00166 0.01741,-0.01734c0,-0.00959 -0.0022,-0.01107 -0.0108,-0.00313zm0.06546,0.34161c0.01741,0.00793 0.02404,0.00793 0.03288,-0.00314c0.01741,-0.01734 0.00637,-0.02526 -0.02624,-0.0142c-0.02624,0.00775 -0.02624,0.00775 -0.00663,0.01735zm-0.04363,-0.07913c0.03285,-0.01734 0.03285,-0.01734 0.00661,-0.01734c-0.01765,0 -0.03065,0.00627 -0.03726,0.01734c-0.00417,0.01106 -0.0086,0.01734 -0.00639,0.01734c0,0 0.01741,-0.00941 0.03704,-0.01734zm-0.04806,0.25639c0.01518,0.01734 0.04142,0.01734 0.03285,-0.00166c-0.0022,-0.00628 -0.00443,-0.0142 -0.00443,-0.01587c0,-0.00148 -0.00881,-0.00148 -0.01961,0.00167c-0.01765,0.00313 -0.01765,0.00793 -0.00881,0.01586zm-0.06769,-0.06493c0.01741,0.01734 0.02624,0.019 0.04585,0.00627c0.013,-0.00793 0.013,-0.00793 0,-0.0094c-0.00661,0 -0.02402,-0.00167 -0.03922,-0.0048c-0.02184,-0.00627 -0.02184,-0.00627 -0.00663,0.00793zm-0.0022,-0.17247c0.01104,0 0.02404,-0.02527 0.01741,-0.0332c-0.00857,-0.00793 -0.02622,0.00479 -0.02622,0.019c0,0.00794 0.00441,0.0142 0.00881,0.0142zm-0.10689,0.10754c-0.01324,0.00646 -0.01104,0.00794 0.00637,0.00794c0.01104,0 0.02402,-0.00314 0.02845,-0.00794c0.00661,-0.01255 -0.01521,-0.01255 -0.03482,0zm0.0022,0.13926c0.00196,0.00167 0.00857,-0.00166 0.0152,-0.0094c0.00661,-0.00646 0.02622,-0.01439 0.04142,-0.01753c0.01961,-0.00479 0.02845,-0.01254 0.02845,-0.0238c0,-0.02674 -0.03065,-0.01882 -0.06326,0.01587c-0.01324,0.01752 -0.02402,0.03172 -0.02181,0.03486zm-0.02404,-0.07286c0.01961,-0.01734 0.01961,-0.02048 0.00417,-0.02527c-0.01741,-0.00627 -0.03039,0.00794 -0.03039,0.0332c-0.00223,0.019 -0.00223,0.019 0.02622,-0.00793zm-0.03506,-0.18667c0.0022,0.01273 0.00661,0.01107 0.01961,-0.01255c0.01545,-0.02526 0.01545,-0.02859 0.0022,-0.02859c-0.00857,0 -0.01741,0.00479 -0.01961,0.01273c-0.00441,0.00627 -0.00441,0.02066 -0.0022,0.02841zm-0.0108,-0.12967c0,0.00645 0.00417,0.02213 0.0086,0.0332c0.00661,0.02214 0.00661,0.02214 0.01324,0.00313c0.00857,-0.01899 0,-0.0474 -0.01324,-0.0474c-0.00639,0 -0.0086,0.00479 -0.0086,0.01107zm-0.15298,0.05219c-0.0108,0.01107 -0.0108,0.02214 -0.00223,0.05534c0.00443,0.0238 0.01547,0.04759 0.02184,0.0522c0.01104,0.00793 0.01324,0 0.01544,-0.04906c0,-0.05995 -0.01104,-0.07895 -0.03505,-0.05848zm0.01961,0.16768c0.0022,0.00314 0.00661,-0.00313 0.00441,-0.01255c0,-0.00959 -0.0022,-0.01107 -0.00661,-0.00479c-0.00196,0.00627 -0.00196,0.0142 0.0022,0.01734zm0.07871,-0.14867c-0.0022,0.00314 -0.0022,0.02527 0.00441,0.04906c0.00663,0.04114 0.0086,0.0428 0.0108,0.01273c0.0022,-0.04907 -0.0022,-0.07286 -0.01521,-0.06179zm-0.0743,0.4462c0.01324,-0.019 0.03506,-0.05073 0.05026,-0.06973c0.01741,-0.02047 0.02845,-0.0474 0.03285,-0.07433c0.00639,-0.04261 0.00639,-0.04261 0.00639,-0.04261c-0.02624,0.02362 -0.02624,0.02362 -0.02624,0.02362c-0.013,0.01273 -0.02181,0.02693 -0.02181,0.03172c0,0.01255 -0.04145,0.09168 -0.05445,0.10588c-0.00661,0.00792 -0.01765,0.02545 -0.01961,0.038c-0.01104,0.03633 0.0086,0.03006 0.03261,-0.01255zm-0.15497,0.16288c0.00663,0.03154 0.00663,0.03154 0.02845,-0.03634c0.013,-0.03652 0.03261,-0.09499 0.04585,-0.13134c0.01741,-0.04593 0.02404,-0.08392 0.02404,-0.1376c0,-0.06972 -0.00223,-0.0712 -0.01963,-0.06326c-0.03946,0.02047 -0.0613,0.07747 -0.07011,0.18814c-0.00417,0.057 -0.0086,0.114 -0.013,0.12654c-0.0022,0.01273 0,0.03652 0.00441,0.05386zm0.00443,-0.40489c0.00857,0.01568 0.01741,0.02841 0.01741,0.02841c0.0022,0 0.01298,-0.00959 0.02181,-0.02214c0.01104,-0.01106 0.02845,-0.02379 0.03506,-0.0284c0.026,-0.01439 0.03261,-0.05866 0.0108,-0.08872c-0.01741,-0.02693 -0.06546,-0.057 -0.0743,-0.04741c-0.00441,0.00313 -0.01077,0.03321 -0.0152,0.06806c-0.00881,0.0522 -0.00881,0.06807 0.00443,0.0902zm-0.01324,-0.36227c0.00441,0.00314 0.00881,0.00148 0.00881,-0.00331c0,-0.00628 -0.00441,-0.01255 -0.00881,-0.01568c-0.00663,-0.00332 -0.0108,-0.00166 -0.0108,0.00461c0,0.00479 0.00417,0.01107 0.0108,0.01438zm-0.7074,0.42536c0.03041,0.00167 0.03041,0.00167 0.03041,0.00167c0.03065,0 0.0613,-0.02048 0.0613,-0.038c0,-0.01107 -0.0022,-0.01107 -0.09171,0.03633zm0.013,-0.04427c0,0.0048 0.00441,0.00959 0.01104,0.00959c0.01078,0 0.04142,-0.02841 0.03482,-0.0332c-0.00663,-0.00646 -0.04585,0.0142 -0.04585,0.02361zm0.02404,-0.10901c0.03285,0.03155 0.04806,0.03468 0.06546,0.0142c0.01765,-0.01899 0.0022,-0.03172 -0.05028,-0.03633c-0.04363,-0.0048 -0.04363,-0.0048 -0.01518,0.02213zm-0.02404,-0.08872c0,0.00331 0.01544,0.01106 0.03285,0.01752c0.08067,0.03007 0.09611,0.03007 0.09391,0.00148c0,-0.01734 -0.03285,-0.05534 -0.04585,-0.05534c-0.01544,0 -0.08091,0.03006 -0.08091,0.03634zm0.11795,0.22466c0.02402,0 0.02622,-0.00479 0.00661,-0.01254c-0.00884,-0.00167 -0.01741,0 -0.01961,0.00461c-0.00443,0.00479 0.0022,0.00793 0.013,0.00793zm0.01741,-0.37168c-0.01521,-0.00794 -0.03484,-0.01107 -0.04365,-0.00794c-0.0152,0.00628 -0.013,0.00794 0.00881,0.01273c0.0108,0.00314 0.03288,0.00628 0.04365,0.00776c0.013,0 0.013,-0.00314 -0.00881,-0.01255zm-0.00196,0.05699c0.01298,0 0.0152,-0.00166 0.00637,-0.00645c-0.00637,-0.00148 -0.01521,-0.00148 -0.01961,0.00166c-0.0022,0.00313 0.00441,0.00627 0.01324,0.00479zm0.01298,0.03634c-0.03065,0 -0.03065,0.00148 -0.01298,0.0142c0.02181,0.0142 0.02818,0.01586 0.03702,0.00627c0.0152,-0.01254 0.00441,-0.02047 -0.02404,-0.02047zm0.04365,-0.17874c-0.00884,-0.00793 -0.01104,0.00627 -0.00661,0.02361c0.0022,0.01107 0.01101,0.02066 0.01544,0.02066c0.00857,0 0.0022,-0.03486 -0.00884,-0.04427zm0.06987,0.2088c-0.00441,0.00148 0.00663,0.01107 0.01963,0.01901c0.01324,0.00793 0.02402,0.01106 0.02402,0.00627c0,-0.01107 -0.03702,-0.03173 -0.04365,-0.02527zm-0.05467,0.01107c-0.01961,0.01107 -0.00857,0.03948 0.01985,0.04427c0.0152,0.00313 0.03925,0.01586 0.05445,0.02841c0.01324,0.01273 0.02402,0.01753 0.02402,0.01273c0,-0.01586 -0.08728,-0.09186 -0.09832,-0.0854zm0.08951,0.13134c-0.013,-0.02546 -0.02821,-0.038 -0.05665,-0.04594c-0.02181,-0.00627 -0.04365,-0.00959 -0.05026,-0.00793c-0.00663,0.00166 0.01961,0.02213 0.05689,0.04592c0.06987,0.04113 0.06987,0.04113 0.05002,0.00794zm0.11596,-0.24367c-0.00441,0 -0.00884,0.00627 -0.00884,0.01254c0,0.00793 0.00443,0.01273 0.00884,0.01273c0.00637,0 0.0108,-0.00479 0.0108,-0.01273c0,-0.00627 -0.00443,-0.01254 -0.0108,-0.01254zm-0.01985,0.12967c0,0.01107 0.03726,0.00313 0.05246,-0.01107c0.02181,-0.0238 0.01961,-0.03006 -0.00884,-0.03006c-0.01961,0 -0.04363,0.02214 -0.04363,0.04113zm0.0635,-0.34161c-0.00663,0.02047 -0.01104,0.03781 -0.00884,0.03948c0.00663,0.00627 0.02404,-0.04113 0.02404,-0.06014c0,-0.00793 -0.00663,0.00167 -0.01521,0.02066zm0.11352,0.31948c-0.01104,0 -0.01961,0.00314 -0.01961,0.00941c0,0.00479 0.00637,0.00794 0.01298,0.00794c0.00884,0 0.01741,-0.00314 0.01963,-0.00794c0.00441,-0.00627 -0.00223,-0.00941 -0.013,-0.00941zm-0.02624,0.29735c0.013,0.0286 0.03261,0.05534 0.04365,0.06179c0.01104,0.00479 0.03285,0.02693 0.04585,0.04907c0.013,0.02213 0.02624,0.03947 0.02845,0.03947c0.01077,0 -0.01104,-0.14553 -0.02624,-0.18981c-0.01324,-0.03799 -0.01741,-0.07286 -0.01521,-0.12819c0.00196,-0.04113 0,-0.07748 -0.00441,-0.08061c-0.0022,-0.00313 -0.01741,-0.00313 -0.03065,0c-0.02404,0.00627 -0.02624,0.01107 -0.02624,0.04593c0,0.02674 -0.00441,0.04113 -0.01521,0.0474c-0.03065,0.0142 -0.02845,0.09481 0,0.15494zm-0.06326,-0.21193c-0.00441,-0.0238 -0.00881,-0.02693 -0.03285,-0.02693c-0.02845,0 -0.02845,0.00166 -0.02624,0.03486c0,0.02048 0.00443,0.04428 0.00663,0.05534c0.0022,0.01107 0.0108,0.02214 0.01961,0.0238c0.01741,0.00794 0.03702,-0.0474 0.03285,-0.08706zm-0.03285,0.15973c-0.01961,-0.019 -0.03285,-0.03947 -0.03482,-0.04427c0,-0.00627 -0.01104,-0.02213 -0.02402,-0.03633c-0.01324,-0.0142 -0.02845,-0.03173 -0.03508,-0.038c-0.02181,-0.02214 -0.01741,-0.00313 0.00663,0.04593c0.0152,0.03321 0.04142,0.06327 0.07207,0.08854c0.05665,0.04279 0.06326,0.03486 0.01521,-0.01587zm-0.03482,0.07766c0.02378,0 0.02181,-0.00166 -0.01104,-0.02693c-0.02181,-0.01586 -0.03702,-0.0332 -0.03702,-0.04113c0,-0.00627 -0.02845,-0.02859 -0.0613,-0.04906c-0.03261,-0.02066 -0.06326,-0.04113 -0.06767,-0.04741c-0.00443,-0.00793 -0.00663,-0.00793 -0.00663,0.00148c0,0.00959 -0.01078,0.01107 -0.04585,0.00627c-0.02402,-0.00314 -0.04363,-0.00314 -0.04363,-0.00147c0,0.00313 0.00881,0.02213 0.01765,0.04113c0.01521,0.03154 0.02181,0.038 0.06987,0.05054c0.03041,0.00793 0.07847,0.02693 0.10912,0.04113c0.02845,0.01439 0.06326,0.02545 0.0765,0.02545zm-0.34083,0.05368c0.00884,0 0.02184,-0.00313 0.03065,-0.00793c0.01521,-0.01106 0.00223,-0.01106 -0.02622,0c-0.013,0.0048 -0.0152,0.00628 -0.00443,0.00793zm-0.02402,-0.03948c0.02181,-0.00645 0.09171,-0.01273 0.15521,-0.01273c0.11989,-0.00148 0.14393,-0.00627 0.09587,-0.01586c-0.0152,-0.00313 -0.05002,-0.01107 -0.07847,-0.019c-0.05026,-0.0142 -0.15301,-0.00941 -0.16378,0.00645c-0.00223,0.00314 -0.01324,0.0048 -0.02404,0.00314c-0.02181,-0.0048 -0.04365,0.00793 -0.05026,0.0332c-0.00884,0.02047 0.00661,0.02214 0.06546,0.00479zm-0.17458,0.03634c0.00441,0.01273 0.02624,0.0142 0.04365,0.00313c0.01077,-0.00627 0.01077,-0.0094 0,-0.01899c-0.00884,-0.00941 -0.0152,-0.00941 -0.02845,-0.00148c-0.00884,0.00461 -0.01521,0.01254 -0.01521,0.01734zm-0.06987,0.11067c0.00857,0 0.01298,0.00479 0.00857,0.0142c-0.00196,0.00646 -0.00857,0.01273 -0.013,0.01273c-0.00661,0 -0.01078,-0.00627 -0.01078,-0.01273c0,-0.00775 0.00637,-0.0142 0.0152,-0.0142z" stroke-width="0" fill="#aaffd4"/>
 </g>
</svg>